<svg width="19" height="20" viewBox="0 0 19 20" fill="none" xmlns="http://www.w3.org/2000/svg">
<path fill-rule="evenodd" clip-rule="evenodd" d="M18.205 2.73005C18.75 3.79961 18.75 5.19974 18.75 8V10.6988C18.75 10.9785 18.75 11.1183 18.7444 11.2364C18.6225 13.812 16.562 15.8725 13.9864 15.9944C13.8683 16 13.7123 16 13.4004 16L13.3203 16.0001C12.3001 16.0066 11.3062 16.3251 10.4722 16.9128L10.4192 16.9506L7.80848 18.8154C6.9135 19.4546 5.73743 18.5314 6.1459 17.5103C6.43525 16.7869 5.90251 16 5.12341 16H4.52166C2.43863 16 0.75 14.3114 0.75 12.2283V8C0.75 5.19974 0.75 3.79961 1.29497 2.73005C1.77433 1.78924 2.53924 1.02433 3.48005 0.544967C4.54961 0 5.94974 0 8.75 0H10.75C13.5503 0 14.9504 0 16.02 0.544967C16.9608 1.02433 17.7257 1.78924 18.205 2.73005ZM5.75 6.75L9.75 6.75C10.1642 6.75 10.5 6.41421 10.5 6C10.5 5.58579 10.1642 5.25 9.75 5.25L5.75 5.25C5.33579 5.25 5 5.58579 5 6C5 6.41421 5.33579 6.75 5.75 6.75ZM5.75 9.25C5.33579 9.25 5 9.58579 5 10C5 10.4142 5.33579 10.75 5.75 10.75H13.75C14.1642 10.75 14.5 10.4142 14.5 10C14.5 9.58579 14.1642 9.25 13.75 9.25H5.75Z" fill="white"/>
</svg>
