<?xml version="1.0" encoding="UTF-8"?><svg xmlns="http://www.w3.org/2000/svg" viewBox="0 0 377.38 317.14"><defs><style>.cls-1{mix-blend-mode:screen;}.cls-1,.cls-2{fill:#f7af00;}.cls-3{letter-spacing:.08em;}.cls-4{fill:#fff;font-family:Montserrat-Thin, Montserrat;font-size:39px;stroke-width:4px;}.cls-4,.cls-5,.cls-6{stroke-linecap:round;stroke-linejoin:round;}.cls-4,.cls-6{stroke:#fff;}.cls-7{letter-spacing:-.02em;}.cls-8{isolation:isolate;}.cls-9,.cls-10{mix-blend-mode:multiply;}.cls-9,.cls-10,.cls-11{fill:#1a1825;}.cls-12{letter-spacing:.07em;}.cls-13{letter-spacing:.06em;}.cls-14,.cls-15{fill:#7958fa;}.cls-16{fill:#4bce87;}.cls-17{letter-spacing:.07em;}.cls-15{font-family:Montserrat-Black, Montserrat;font-size:29.92px;}.cls-18{letter-spacing:.08em;}.cls-5{stroke:#1a1825;stroke-width:5px;}.cls-5,.cls-6{fill:none;}.cls-10{opacity:.28;}.cls-19{letter-spacing:.08em;}.cls-20{fill:#2b64fe;}.cls-21{fill:#d62141;}.cls-22{letter-spacing:.08em;}.cls-6{stroke-width:3px;}</style></defs><g class="cls-8"><g id="Livello_2"><g id="OBJECTS"><g><g><g><path class="cls-21" d="M243.3,192.28c-3.3,8.95-8.99,12.41-8.99,12.41l-11.92,7.25c-43.36,.65-91.27-78.91-91.27-78.91-16.93-29.79-34.24-65.11-32.37-100.38,.48-9.13,3.9-18.93,11.1-24.87,10.06-4.56,21.31-7.62,28.11-3.06v.02c-1.22-.13-2.43-.17-3.66-.12-8.78,.36-17.06,5.45-22.02,12.54-.08,.12-.17,.24-.24,.37-4.57,6.71-6.59,14.89-6.78,23.17,0,.38-.02,.75,0,1.13-.02,.63,0,1.26,.02,1.89,0,.1-.01,.21,0,.31,0,.47,.02,.94,.06,1.41,0,.32,.03,.64,.06,.95,.03,.42,.07,.85,.11,1.28,.05,.64,.13,1.29,.21,1.92,3.18,25.62,16,50.44,29.17,72.42,13.18,22.01,29.33,42.5,48.95,59.08,.99,.84,2,1.67,3.01,2.48,.51,.41,1.02,.82,1.54,1.22,.6,.46,1.21,.93,1.81,1.38,.7,.53,1.39,1.04,2.09,1.53,.62,.44,1.25,.88,1.89,1.32,.86,.58,1.72,1.14,2.59,1.69,.54,.35,1.07,.67,1.62,1,.26,.16,.54,.32,.8,.47,.59,.35,1.17,.68,1.76,1.01,.32,.18,.65,.35,.97,.53,.8,.44,1.61,.85,2.43,1.24,.3,.15,.6,.3,.91,.44,.18,.08,.37,.17,.55,.26,.49,.22,1,.45,1.51,.66,.35,.15,.7,.3,1.04,.44,.6,.24,1.2,.48,1.8,.7,1.8,.66,3.63,1.25,5.5,1.73,1.18,.3,2.36,.56,3.56,.78,8.98,1.65,19.07-.04,24.08-7.7Z"/><path class="cls-14" d="M196.48,225.78c-3.82,.67-7.87,.58-11.71-.11-13.96-2.49-26.21-10.69-36.9-20.05-20.24-17.7-36.64-39.63-49.84-63.22-13.18-23.56-25.89-50.19-28.36-77.75-1.07-12.12,.99-25.05,8.14-34.96,.17-.24,.35-.48,.54-.71-9.04,30.32,2.54,70.4,29.43,117.71,0,0,41.17,73.56,88.69,79.09Z"/><g><path class="cls-11" d="M225.16,182.92c-8.02,4.63-19.92,.89-32.96-9-1.93-18.76-10.52-43.39-24.83-68.17-13.79-23.88-30.13-43.1-44.99-54.34-1.57-15.23,1.22-26.59,8.89-31.02,17.14-9.9,52.03,18.47,77.96,63.35,25.91,44.88,33.05,89.28,15.92,99.18Z"/><path class="cls-9" d="M225.16,182.92c-8.02,4.63-19.92,.89-32.96-9-1.93-18.76-10.52-43.39-24.83-68.17-13.79-23.88-30.13-43.1-44.99-54.34-1.57-15.23,1.22-26.59,8.89-31.02,17.14-9.9,52.03,18.47,77.96,63.35,25.91,44.88,33.05,89.28,15.92,99.18Z"/></g><path class="cls-21" d="M244.02,144.56c-3.54-18.16-11.51-35.36-20.42-51.51-2.22-4.01-4.48-8.01-6.83-11.97-1.95,1.85-3.87,3.74-5.8,5.71,24.5,43.83,30.93,86.45,14.2,96.12-8.02,4.63-19.92,.89-32.96-9-14.85-11.24-31.19-30.46-45-54.36-14.3-24.78-22.89-49.41-24.82-68.16-1.57-15.23,1.22-26.59,8.89-31.02,11.91-6.88,32.38,4.72,52.48,27.5,2.02-1.83,4.02-3.57,6.03-5.26,2.94,3.41,6.78,8.12,11.12,13.98-2.37-3.31-4.82-6.57-7.35-9.75-7.8-9.82-16.56-18.96-26.44-26.67-8.29-6.47-18.38-14.29-29.18-15.44-1.2-.13-2.42-.17-3.64-.12-8.78,.36-17.06,5.45-22.02,12.54-.08,.12-.17,.24-.24,.37-4.57,6.71-6.59,14.89-6.78,23.17,0,.38-.02,.75,0,1.13,0,.63,0,1.26,.02,1.89,0,.1-.01,.21,0,.31,.01,.47,.02,.94,.06,1.41,0,.32,.03,.64,.06,.95,.03,.42,.07,.85,.11,1.28,.05,.64,.13,1.29,.21,1.92,3.18,25.62,16,50.44,29.17,72.42,13.18,22.01,29.33,42.5,48.95,59.08,.99,.84,2,1.67,3.01,2.48,.51,.41,1.02,.82,1.54,1.22,.6,.46,1.21,.93,1.81,1.38,.7,.53,1.39,1.04,2.09,1.53,.62,.44,1.25,.88,1.89,1.32,.86,.58,1.72,1.14,2.59,1.69,.54,.34,1.07,.67,1.62,1,.26,.16,.54,.32,.8,.47,.59,.35,1.17,.68,1.76,1.01,.32,.18,.65,.35,.97,.53,.8,.44,1.61,.85,2.43,1.24,.3,.15,.6,.3,.91,.44,.18,.08,.37,.17,.55,.26,.49,.22,1,.45,1.51,.66,.35,.15,.7,.3,1.04,.44,.6,.24,1.2,.48,1.8,.7,1.8,.66,3.63,1.25,5.5,1.73,1.18,.3,2.36,.56,3.56,.78,8.98,1.65,19.07-.04,24.08-7.7l.03-.05,1.67-3.3c4.95-12.93,1.61-31.06-.98-44.36Z"/><path class="cls-6" d="M136.06,7.07S110.52,.44,109.87,40.56"/><path class="cls-20" d="M206.4,221.66l-.04,.02-3.36,2.04c-2.04,.99-4.22,1.66-6.5,2.06h-.01c-47.52-5.53-88.69-79.09-88.69-79.09-26.9-47.32-38.47-87.4-29.43-117.71,2.45-3.24,5.51-6.05,8.97-8.22-2.11,3.72-3.92,7.6-5.06,11.79-4.71,17.29,.12,37.59,5.48,54.24,6.16,19.16,15.1,37.38,25,54.87,.11,.19,.23,.38,.34,.59,0,0,43.87,78.38,93.31,79.41Z"/><path class="cls-16" d="M211.52,218.54l-5.12,3.12c-49.44-1.03-93.31-79.41-93.31-79.41-.11-.2-.23-.39-.34-.59-9.9-17.49-18.84-35.72-25-54.87-5.36-16.65-10.19-36.95-5.48-54.24,1.15-4.19,2.96-8.07,5.06-11.79,.32-.22,.64-.41,.97-.6,.01,0,.03-.01,.05-.03,.38-.25,2.59-1.8,5.92-3.88-.34,.52-.65,1.04-.96,1.53-4.1,6.62-6.28,13.75-6.7,21.52-1.91,35.27,15.44,70.59,32.37,100.38,0,0,48.85,81.11,92.54,78.86Z"/><path class="cls-2" d="M215.37,216.2l-3.84,2.34h-.01c-43.69,2.25-92.54-78.86-92.54-78.86-16.93-29.79-34.28-65.11-32.37-100.38,.42-7.77,2.6-14.91,6.7-21.52,.31-.49,.62-1,.96-1.53,1.91-1.19,4.19-2.57,6.72-3.99-1.08,1.39-2.03,2.74-2.79,3.96-4.1,6.63-4.37,12.94-4.78,20.71-1.92,35.27,15.44,70.59,32.36,100.38,0,0,46.69,77.52,89.59,78.89Z"/><path class="cls-1" d="M215.37,216.2l-3.84,2.34h-.01c-43.69,2.25-92.54-78.86-92.54-78.86-16.93-29.79-34.28-65.11-32.37-100.38,.42-7.77,2.6-14.91,6.7-21.52,.31-.49,.62-1,.96-1.53,1.91-1.19,4.19-2.57,6.72-3.99-1.08,1.39-2.03,2.74-2.79,3.96-4.1,6.63-4.37,12.94-4.78,20.71-1.92,35.27,15.44,70.59,32.36,100.38,0,0,46.69,77.52,89.59,78.89Z"/><path class="cls-2" d="M222.39,211.94l-7.02,4.27c-42.9-1.37-89.59-78.89-89.59-78.89-16.92-29.79-34.28-65.11-32.36-100.38,.41-7.77,.68-14.09,4.78-20.71,.76-1.22,1.7-2.57,2.79-3.96,2.73-1.51,5.74-3.06,8.86-4.48-7.2,5.93-10.61,15.74-11.1,24.87-1.87,35.27,15.44,70.59,32.37,100.38,0,0,47.91,79.56,91.27,78.91Z"/></g><g><path class="cls-21" d="M282.55,38.92c-4.97,34.97-28.76,66.28-51.12,92.26,0,0-.03,.02-.08,.08-.04,.05-.1,.12-.18,.21-.89,.96-3.91,4.21-8.5,8.73-.44,.43-.9,.87-1.37,1.32-1.46,1.43-3.05,2.96-4.79,4.57-1.93,1.81-4.02,3.71-6.25,5.69-.56,.49-1.13,.99-1.69,1.49-5.15,4.5-10.95,9.27-17.12,13.86-.68,.51-1.37,1.01-2.07,1.51-.71,.51-1.4,1.01-2.1,1.5-2.55-2.24-5.13-4.71-7.71-7.38,8.45-5.31,16.48-11.26,24.14-17.71,9.31-7.82,18.02-16.37,26.16-25.39,17.16-19.03,34.53-40.92,42.59-65.44,.2-.61,.4-1.22,.58-1.84,.12-.41,.24-.83,.35-1.24,.09-.29,.17-.61,.25-.92,.12-.45,.22-.91,.33-1.36,.03-.1,.05-.21,.07-.3,.14-.61,.27-1.23,.38-1.84,.09-.38,.16-.74,.22-1.12,1.41-8.15,1.01-16.57-2.18-24.04-.04-.14-.11-.28-.16-.4-3.5-7.92-10.65-14.5-19.19-16.56-1.19-.27-2.4-.47-3.61-.59v-.02c7.54-3.15,18,2.01,26.98,8.42,5.92,7.22,7.39,17.5,6.09,26.54Z"/><path class="cls-21" d="M274.62,45.57c-.06,.38-.13,.75-.22,1.12-.11,.61-.24,1.23-.38,1.84-.02,.1-.04,.21-.07,.3-.11,.45-.21,.91-.33,1.36-.08,.32-.16,.63-.25,.92-.11,.41-.23,.83-.35,1.24-.18,.62-.37,1.24-.58,1.84-8.06,24.52-25.42,46.41-42.59,65.44-8.14,9.02-16.85,17.57-26.16,25.39-7.66,6.45-15.69,12.4-24.14,17.71-3.06-2.39-7.25-7.76-7.25-7.76,5.02-3.05,10.5-7.08,15.78-11.23,10.02-7.88,20.32-17.65,30.16-28.9,18.82-21.56,32-44.07,37.5-62.1,4.48-14.64,3.92-26.32-2.75-32.15-11.27-9.83-36.73-.17-63.21,22.01-2.6-3.02-4.49-5.04-5.38-5.97,.79-.7,1.59-1.38,2.39-2.07,9.55-8.14,19.9-15.41,31.07-21.07,9.39-4.76,20.81-10.48,31.61-9.54,1.2,.11,2.41,.31,3.61,.59,8.54,2.06,15.69,8.64,19.19,16.56,.05,.13,.12,.27,.16,.4,3.19,7.47,3.59,15.89,2.18,24.04Z"/><path class="cls-6" d="M258.44,7.42s26.19,3.15,12.16,40.74"/><path class="cls-21" d="M184.4,36.66s-32.67,32.69-40.52,42.96l8.23,3.27,34.33-37.39-2.04-8.84Z"/><path class="cls-14" d="M304.91,75.93c-7.73,26.58-25.34,50.25-42.82,70.82-.82,.96-1.63,1.91-2.47,2.85-10.64,12.21-22.29,23.58-34.99,33.53-.01,0-.01,.01-.03,.01-.7,.42-1.46,.76-2.23,1.04-2.88,.99-5.98,1.19-9.28,.66,.71-.52,1.4-1.05,2.08-1.58,.66-.5,1.3-1,1.94-1.5,7.46-5.86,14.12-11.82,19.54-17.02,.99-.95,1.92-1.86,2.82-2.75,7.64-7.54,12.2-12.91,12.2-12.91,.04-.03,.07-.08,.1-.12,2.96-3.44,5.8-6.85,8.53-10.23,1.79-2.22,3.53-4.44,5.22-6.63,4.32-5.6,8.3-11.12,11.91-16.55,1.42-2.13,2.79-4.26,4.11-6.37,4-6.4,7.48-12.66,10.42-18.8,.39-.82,.78-1.62,1.14-2.43,1.5-3.26,2.85-6.5,4.04-9.68,1.39-3.75,2.56-7.44,3.5-11.07,2.55-9.74,3.46-19.07,2.6-27.96,.15,.27,.28,.55,.4,.81,5.1,11.11,4.63,24.18,1.24,35.87Z"/><g><path class="cls-11" d="M216.91,80.94c-5.31,5.03-10.61,10.55-15.78,16.47-8.77,10.04-16.32,20.29-22.43,30.2-6.5-14.85-15.57-29.76-26.59-44.72,3.73-5.06,7.8-10.12,12.19-15.14,8.31-9.51,16.96-17.96,25.49-25.12,6.27,7.29,16.67,20.42,27.13,38.31Z"/><path class="cls-9" d="M178.7,127.61c-4.21,6.81-7.73,13.45-10.51,19.77-.32,.7-.62,1.4-.91,2.09-13.03-15.24-22.8-33.43-28.69-45.97,.44-.77,.88-1.54,1.34-2.32,3.54-5.99,7.61-12.13,12.18-18.29,11.02,14.96,20.09,29.87,26.59,44.72Z"/><path class="cls-9" d="M216.77,81.08c-1.95,1.85-3.87,3.74-5.8,5.71-.56-1.02-1.14-2.03-1.73-3.05-7.91-13.69-16.66-25.86-25.48-35.86,2.02-1.83,4.02-3.57,6.03-5.26,2.94,3.41,6.78,8.12,11.12,13.98,.1,.14,.21,.28,.31,.42,3.5,4.88,6.85,9.91,10.06,15.01,1.88,2.99,3.71,6.01,5.49,9.03Z"/><path class="cls-9" d="M209.24,83.74c.59,1.02,1.16,2.03,1.73,3.05-3.31,3.36-6.59,6.91-9.84,10.62-8.77,10.04-16.32,20.29-22.43,30.2-6.5-14.85-15.57-29.76-26.59-44.72,3.73-5.06,7.8-10.12,12.19-15.14,6.35-7.27,12.91-13.93,19.47-19.86,8.82,10,17.57,22.17,25.48,35.86Z"/><path class="cls-9" d="M216.91,80.94c-.05,.05-.1,.09-.14,.14-1.78-3.03-3.61-6.05-5.49-9.03-3.21-5.1-6.56-10.13-10.06-15.01,4.83,6.58,10.25,14.6,15.69,23.91Z"/></g><path class="cls-21" d="M152.11,82.89c-4.57,6.16-8.64,12.29-12.18,18.29-.46,.78-.91,1.56-1.34,2.32-2.03-4.33-3.6-7.97-4.69-10.6,.17-.25,.35-.5,.52-.75,3.92-5.58,8.13-10.97,12.45-16.19,1.8,2.3,3.54,4.62,5.24,6.93Z"/><path class="cls-9" d="M255.75,52.77c-11.98,5.84-25.48,15.53-38.84,28.17-10.46-17.89-20.85-31.02-27.13-38.31,26.48-22.18,51.94-31.84,63.21-22.01,6.67,5.83,7.22,17.51,2.75,32.15Z"/><path class="cls-20" d="M300.66,67.21c-.93,3.64-2.1,7.33-3.5,11.07-1.19,3.18-2.54,6.41-4.04,9.68-.36,.81-.75,1.61-1.14,2.43-2.94,6.13-6.42,12.4-10.42,18.8-1.31,2.11-2.68,4.24-4.11,6.37-3.62,5.43-7.6,10.94-11.91,16.55-1.68,2.19-3.43,4.41-5.22,6.63-2.73,3.38-5.58,6.78-8.53,10.23-.04,.03-.07,.08-.1,.12,0,0-4.56,5.37-12.2,12.91-.9,.89-1.83,1.8-2.82,2.75-5.42,5.2-12.07,11.16-19.54,17.02-.64,.5-1.29,1-1.94,1.5-.68,.53-1.38,1.06-2.08,1.58h-.01c-2.62-.42-5.35-1.31-8.16-2.59,.08-.06,.15-.12,.23-.16,1.01-.72,2.01-1.45,3-2.18,3.2-2.37,6.27-4.79,9.19-7.18,.49-.41,.97-.81,1.45-1.21,2.1-1.76,4.12-3.51,6.04-5.21,.53-.48,1.05-.94,1.55-1.4,.18-.16,.35-.33,.52-.48,.84-.76,1.66-1.52,2.46-2.26,4-3.72,7.46-7.16,10.24-10.05,.47-.48,.91-.95,1.34-1.4,.85-.89,1.62-1.71,2.31-2.46,1.9-2.05,3.18-3.51,3.76-4.17,.07-.1,.13-.17,.18-.22l.16-.18c.15-.18,.29-.34,.45-.51,13.09-15.25,25.37-31.41,35.12-49.03,8.47-15.3,17.12-34.28,15.82-52.16-.31-4.33-1.34-8.49-2.69-12.55,2.97,2.8,5.43,6.15,7.21,9.79,.86,8.89-.05,18.21-2.6,27.96Z"/><path class="cls-16" d="M282.92,94.17c-9.75,17.61-22.03,33.77-35.12,49.03-.16,.16-.3,.33-.45,.51l-.16,.18c-.05,.06-.12,.13-.18,.22-.58,.66-1.86,2.12-3.76,4.17-.69,.74-1.46,1.56-2.31,2.46-.43,.45-.87,.92-1.34,1.4-2.78,2.89-6.24,6.33-10.24,10.05-.8,.75-1.62,1.51-2.46,2.26-.17,.15-.34,.32-.52,.48-.5,.45-1.02,.92-1.55,1.4-1.92,1.7-3.93,3.44-6.04,5.21-.48,.39-.95,.8-1.45,1.21-2.91,2.4-5.99,4.81-9.19,7.18-.99,.74-1.99,1.46-3,2.18-.08,.05-.15,.1-.23,.16-2.13-.98-4.31-2.18-6.54-3.59,1.91-1.37,3.8-2.75,5.65-4.15,.84-.63,1.67-1.27,2.49-1.9,.08-.07,.17-.13,.24-.2,.9-.7,1.79-1.41,2.68-2.12,4.4-3.52,8.53-7.05,12.27-10.38,.37-.33,.74-.66,1.1-.99,.36-.33,.73-.65,1.09-.98,.71-.65,1.41-1.29,2.09-1.92,2.11-1.95,4.05-3.81,5.8-5.5,.51-.49,1-.97,1.47-1.44,.53-.53,1.04-1.03,1.52-1.51h.01c.62-.62,1.2-1.21,1.75-1.76,.47-.48,.91-.93,1.33-1.36,2.69-2.76,4.19-4.42,4.19-4.42,22.37-25.97,46.2-57.28,51.12-92.26,1.09-7.7,.32-15.13-2.43-22.41-.21-.53-.41-1.09-.64-1.67,2.87,2.68,4.73,4.63,5.05,4.94l.05,.05c.28,.25,.57,.5,.83,.77,1.35,4.06,2.38,8.22,2.69,12.55,1.3,17.88-7.35,36.86-15.82,52.16Z"/><path class="cls-2" d="M293.18,47.78c-4.92,34.98-28.76,66.28-51.12,92.26,0,0-1.51,1.66-4.19,4.42-.42,.43-.86,.88-1.33,1.36-.55,.55-1.12,1.14-1.75,1.76h-.01c-.48,.48-.99,.98-1.52,1.51-.47,.47-.96,.95-1.47,1.44-1.75,1.7-3.69,3.55-5.8,5.5-.67,.63-1.37,1.27-2.09,1.92-.36,.33-.73,.65-1.09,.98-.36,.33-.73,.66-1.1,.99-3.74,3.33-7.86,6.86-12.27,10.38-.89,.71-1.78,1.41-2.68,2.12-.08,.07-.17,.13-.24,.2-.82,.63-1.66,1.27-2.49,1.9-1.85,1.41-3.74,2.79-5.65,4.15h-.01c-1.86-1.2-3.74-2.54-5.66-4.02,.08-.06,.17-.11,.24-.18,.76-.53,1.5-1.07,2.23-1.62,.82-.6,1.64-1.21,2.44-1.82,.41-.31,.82-.62,1.23-.93,.49-.37,.96-.74,1.44-1.11,3.2-2.48,6.27-5,9.18-7.47,.59-.5,1.17-.99,1.74-1.49,.43-.37,.85-.73,1.27-1.09,.96-.83,1.89-1.65,2.79-2.47,1.64-1.47,3.22-2.9,4.73-4.29,.86-.81,1.7-1.59,2.5-2.35,.05-.05,.1-.11,.17-.15,.48-.47,.96-.92,1.43-1.38,.52-.49,1.03-.98,1.52-1.46,.4-.39,.79-.77,1.17-1.13,1.52-1.5,2.86-2.85,4.04-4.04,.39-.4,.76-.77,1.12-1.14,.25-.26,.48-.5,.72-.74,.22-.23,.44-.47,.65-.68,.2-.21,.39-.41,.57-.6,.37-.39,.68-.72,.94-1,.65-.71,1.01-1.09,1.01-1.09,22.34-25.97,46.19-57.27,51.11-92.26,1.1-7.7,2.05-13.95-.7-21.24-.51-1.35-1.18-2.86-1.97-4.42,2.21,1.88,4.18,3.66,5.83,5.2,.23,.58,.43,1.15,.64,1.67,2.75,7.29,3.51,14.71,2.43,22.41Z"/><path class="cls-1" d="M293.18,47.78c-4.92,34.98-28.76,66.28-51.12,92.26,0,0-1.51,1.66-4.19,4.42-.42,.43-.86,.88-1.33,1.36-.55,.55-1.12,1.14-1.75,1.76h-.01c-.48,.48-.99,.98-1.52,1.51-.47,.47-.96,.95-1.47,1.44-1.75,1.7-3.69,3.55-5.8,5.5-.67,.63-1.37,1.27-2.09,1.92-.36,.33-.73,.65-1.09,.98-.36,.33-.73,.66-1.1,.99-3.74,3.33-7.86,6.86-12.27,10.38-.89,.71-1.78,1.41-2.68,2.12-.08,.07-.17,.13-.24,.2-.82,.63-1.66,1.27-2.49,1.9-1.85,1.41-3.74,2.79-5.65,4.15h-.01c-1.86-1.2-3.74-2.54-5.66-4.02,.08-.06,.17-.11,.24-.18,.76-.53,1.5-1.07,2.23-1.62,.82-.6,1.64-1.21,2.44-1.82,.41-.31,.82-.62,1.23-.93,.49-.37,.96-.74,1.44-1.11,3.2-2.48,6.27-5,9.18-7.47,.59-.5,1.17-.99,1.74-1.49,.43-.37,.85-.73,1.27-1.09,.96-.83,1.89-1.65,2.79-2.47,1.64-1.47,3.22-2.9,4.73-4.29,.86-.81,1.7-1.59,2.5-2.35,.05-.05,.1-.11,.17-.15,.48-.47,.96-.92,1.43-1.38,.52-.49,1.03-.98,1.52-1.46,.4-.39,.79-.77,1.17-1.13,1.52-1.5,2.86-2.85,4.04-4.04,.39-.4,.76-.77,1.12-1.14,.25-.26,.48-.5,.72-.74,.22-.23,.44-.47,.65-.68,.2-.21,.39-.41,.57-.6,.37-.39,.68-.72,.94-1,.65-.71,1.01-1.09,1.01-1.09,22.34-25.97,46.19-57.27,51.11-92.26,1.1-7.7,2.05-13.95-.7-21.24-.51-1.35-1.18-2.86-1.97-4.42,2.21,1.88,4.18,3.66,5.83,5.2,.23,.58,.43,1.15,.64,1.67,2.75,7.29,3.51,14.71,2.43,22.41Z"/><path class="cls-2" d="M286.96,44.15c-4.92,34.99-28.77,66.28-51.11,92.26,0,0-.35,.39-1.01,1.09-.27,.28-.59,.61-.94,1-.18,.19-.38,.39-.57,.6-.21,.21-.43,.45-.65,.68-.23,.23-.47,.48-.72,.74-.36,.36-.73,.74-1.12,1.14-1.17,1.2-2.52,2.54-4.04,4.04-.38,.36-.77,.75-1.17,1.13-.49,.48-1,.97-1.52,1.46-.47,.46-.95,.91-1.43,1.38-.06,.05-.12,.1-.17,.15-.8,.76-1.65,1.54-2.5,2.35-1.5,1.39-3.08,2.82-4.73,4.29-.92,.81-1.84,1.63-2.79,2.47-.41,.36-.84,.72-1.27,1.09-.57,.5-1.15,.99-1.74,1.49-2.91,2.47-5.97,4.99-9.18,7.47-.48,.37-.95,.74-1.44,1.11-.41,.31-.82,.62-1.23,.93-.8,.61-1.62,1.22-2.44,1.82-.73,.55-1.48,1.09-2.23,1.62-.08,.07-.17,.13-.24,.18-1.79-1.38-3.61-2.88-5.43-4.51,.7-.49,1.4-1,2.1-1.5,.69-.49,1.38-1,2.07-1.51,6.17-4.58,11.98-9.36,17.12-13.86,.57-.5,1.14-1,1.69-1.49,2.23-1.98,4.31-3.88,6.25-5.69,1.74-1.61,3.34-3.14,4.79-4.57,.47-.46,.92-.89,1.37-1.32,4.59-4.52,7.61-7.76,8.5-8.73,.08-.09,.14-.16,.18-.21,.05-.06,.08-.08,.08-.08,22.37-25.97,46.15-57.28,51.12-92.26,1.29-9.05-.17-19.32-6.09-26.54,2.79,2,5.44,4.1,7.83,6.11,.79,1.56,1.47,3.07,1.97,4.42,2.75,7.29,1.8,13.54,.7,21.24Z"/></g><path class="cls-10" d="M213.32,164.72c-5.78-2.21-11.2-5.17-15.97-9.13-3.83-3.18-7.58-7.13-9.44-11.85-5.64,4.52-12.17,9.5-15.6,11.26,0,0,31.36,39.96,52.32,28.14,0,0,3.39-2.51,7.65-6.27,2.41-2.13,5.21-4.67,8.12-7.4-9.22,.19-18.48-1.47-27.08-4.75Z"/></g><g><path class="cls-5" d="M168.69,147.4c-.27,.59-.52,1.19-.78,1.77,1.63,2.01,3.26,3.97,4.9,5.84,2.47-1.5,5.06-3.24,7.67-5.12,1.83-1.36,3.75-2.84,5.64-4.33-1.95-5.76-4.29-11.73-7.01-17.81-4.17,6.76-7.67,13.36-10.43,19.64Z"/><path class="cls-5" d="M122.88,51.43c1.23,11.93,5.16,26.24,11.53,41.45,.16-.24,.33-.47,.49-.71,3.01-4.28,6.2-8.46,9.47-12.53h0c.65-.85,1.48-1.86,2.43-2.98,.19-.23,.37-.45,.55-.68v.02s.06-.06,.09-.09c-8.2-10.11-16.59-18.45-24.56-24.49Z"/><path class="cls-5" d="M304.16,40.09c-.12-.27-.25-.54-.4-.81-1.78-3.65-4.24-7-7.21-9.79-.27-.27-.55-.52-.83-.77l-.05-.05c-.33-.31-2.19-2.26-5.05-4.94-1.64-1.54-3.62-3.32-5.83-5.21-2.38-2.01-5.04-4.11-7.83-6.11-8.98-6.41-19.44-11.57-26.98-8.42v.02c-10.8-.94-22.22,4.78-31.61,9.54-11.18,5.66-21.53,12.93-31.07,21.07-.72,.62-1.44,1.23-2.15,1.86-5.42-5.87-11.24-11.35-17.52-16.26-8.29-6.47-18.38-14.29-29.18-15.44v-.02c-6.79-4.55-18.04-1.5-28.1,3.06-3.12,1.41-6.13,2.97-8.86,4.48-2.53,1.42-4.81,2.79-6.72,3.99-3.33,2.08-5.53,3.63-5.92,3.88-.03,.02-.04,.03-.05,.03-.33,.19-.65,.38-.97,.6-3.46,2.17-6.52,4.98-8.97,8.22-.2,.24-.37,.47-.54,.71-7.15,9.92-9.21,22.85-8.14,34.96,2.46,27.56,15.17,54.18,28.36,77.75,13.2,23.59,29.61,45.52,49.84,63.22,10.69,9.36,22.93,17.56,36.9,20.05,3.84,.7,7.89,.79,11.71,.11h.01c2.28-.4,4.46-1.07,6.5-2.06l3.36-2.04,.04-.02,5.12-3.12h.01l3.84-2.34,7.02-4.27,11.92-7.25s5.7-3.46,8.99-12.41l.03-.05,1.67-3.3c2.87-7.49,2.95-16.72,2.01-25.75,4.35-4.38,8.56-8.91,12.62-13.57,.84-.94,1.65-1.9,2.47-2.85,17.48-20.57,35.09-44.24,42.82-70.82,3.38-11.69,3.85-24.76-1.24-35.87Zm-156.79,35.91v-.02c-.2,.22-.38,.45-.57,.68-.95,1.12-1.78,2.13-2.43,2.98h0c-3.27,4.07-6.46,8.25-9.47,12.53-.16,.24-.33,.47-.49,.71-6.37-15.21-10.31-29.52-11.53-41.45,7.97,6.03,16.36,14.38,24.56,24.49-.02,.03-.05,.06-.08,.09Z"/></g><path class="cls-5" d="M247.5,163.2l-22.87,19.93s-19.8,12.29-51.82-28.12c0,0-23.28-23.57-42.91-72.52,0,0-20.3-54.91,4.88-63.54,0,0,13.67-7.13,44.09,23.47"/><path class="cls-5" d="M186.12,145.57s25.71-21.09,46.02-47.48c20.24-26.82,32.65-60.87,18.73-75.03"/><path class="cls-5" d="M185.14,36.47s-30.43,27.39-37.78,39.51"/><path class="cls-5" d="M216.91,80.94s7.14,12.13,11.31,21.01"/></g></g><g id="TEXTS"><g><text class="cls-4" transform="translate(2 279.78)"><tspan class="cls-19" x="0" y="0">R</tspan><tspan class="cls-18" x="30.85" y="0">ainb</tspan><tspan class="cls-12" x="127.69" y="0">o</tspan><tspan class="cls-17" x="154.01" y="0">w</tspan><tspan class="cls-13" x="189.42" y="0">C</tspan><tspan class="cls-22" x="219.3" y="0">onne</tspan><tspan class="cls-3" x="330.56" y="0">c</tspan><tspan class="cls-22" x="355.13" y="0">t</tspan></text><text class="cls-15" transform="translate(176.21 309.39)"><tspan x="0" y="0">L</tspan><tspan class="cls-7" x="18.46" y="0">ov</tspan><tspan x="57.11" y="0">e is L</tspan><tspan class="cls-7" x="139.71" y="0">ov</tspan><tspan x="178.36" y="0">e</tspan></text></g></g></g></g></svg>